# xmcd
#
# Track frame offsets: 
#        150
#        14713
#        48613
#        78115
#        103015
#        128610
#        149465
#        162660
#        186303
#        215233
#        243185
#        269620
#
# Disc length: 3779 seconds
#
# Revision: 0
# Processed by: cddbd v1.5.2PL0 Copyright (c) Steve Scherf et al.
# Submitted via: ExactAudioCopy v0.99pb3
#
DISCID=b60ec10c
DTITLE=Maxwell - Embrya
DYEAR=1998
DGENRE=R&B
TTITLE0=Gestation: Mythos
TTITLE1=Everwanting:To Want You to Want
TTITLE2=I'm You:You Are Me and We Are You (Part Me and You)
TTITLE3=Luxury:Cococure
TTITLE4=Drowndeep:Hula
TTITLE5=Matrimony:Maybe You
TTITLE6=Arroz con pollo
TTITLE7=Know These Things:Shouldn't You
TTITLE8=Submerge:Til We Become the Sun
TTITLE9=Gravity:Pushing to Pull
TTITLE10=Eachhoureachsecondeachminuteeachday:Of My Life
TTITLE11=Embrya
EXTD=
EXTT0=
EXTT1=
EXTT2=
EXTT3=
EXTT4=
EXTT5=
EXTT6=
EXTT7=
EXTT8=
EXTT9=
EXTT10=
EXTT11=
PLAYORDER=
